<svg width="20" height="20" viewBox="0 0 20 20" fill="none" xmlns="http://www.w3.org/2000/svg">
<path d="M1.45801 5.30841L18.5747 1.66675" stroke="#1F1F1F" stroke-width="2" stroke-linecap="round" stroke-linejoin="round"/>
<path d="M11.3335 0.652536L7.6668 1.4317V1.4317C6.99122 1.5738 6.55875 2.23665 6.70085 2.91222C6.70116 2.91371 6.70148 2.91521 6.7018 2.9167L6.9618 4.14003L13.0751 2.84003L12.8151 1.61753V1.61753C12.6727 0.942038 12.0096 0.509933 11.3341 0.652408C11.3339 0.652451 11.3337 0.652494 11.3335 0.652537L11.3335 0.652536Z" stroke="#1F1F1F" stroke-width="2" stroke-linecap="round" stroke-linejoin="round"/>
<path d="M8.95801 15V8.75" stroke="#1F1F1F" stroke-width="2" stroke-linecap="round" stroke-linejoin="round"/>
<path d="M12.708 15V8.75" stroke="#1F1F1F" stroke-width="2" stroke-linecap="round" stroke-linejoin="round"/>
<path d="M15.5217 5H17.7092L16.555 18.2283V18.2283C16.5011 18.878 15.9569 19.3772 15.305 19.375H6.35917V19.375C5.70915 19.3746 5.1679 18.8761 5.11417 18.2283L4.25 7.81417" stroke="#1F1F1F" stroke-width="2" stroke-linecap="round" stroke-linejoin="round"/>
</svg>
