<svg width="24" height="24" viewBox="0 0 24 24" fill="none" xmlns="http://www.w3.org/2000/svg">
<path d="M6.4 9.6H8V8H6.4V9.6ZM16 9.6H17.6V8H16V9.6ZM16.16 13.92C15.6756 14.5658 15.0476 15.09 14.3255 15.451C13.6035 15.812 12.8073 16 12 16C11.1927 16 10.3965 15.812 9.67449 15.451C8.95244 15.09 8.32436 14.5658 7.84 13.92L6.56 14.88C9.28 18.5072 14.72 18.5072 17.44 14.88L16.16 13.92ZM1.6 8V4H0V8H1.6ZM4 1.6H8V0H4V1.6ZM1.6 4C1.6 3.36348 1.85286 2.75303 2.30294 2.30294C2.75303 1.85286 3.36348 1.6 4 1.6V0C2.93913 0 1.92172 0.421427 1.17157 1.17157C0.421427 1.92172 0 2.93913 0 4H1.6ZM0 16V20H1.6V16H0ZM4 24H8V22.4H4V24ZM0 20C0 21.0609 0.421427 22.0783 1.17157 22.8284C1.92172 23.5786 2.93913 24 4 24V22.4C3.36348 22.4 2.75303 22.1471 2.30294 21.6971C1.85286 21.247 1.6 20.6365 1.6 20H0ZM16 1.6H20V0H16V1.6ZM22.4 4V8H24V4H22.4ZM20 1.6C20.6365 1.6 21.247 1.85286 21.6971 2.30294C22.1471 2.75303 22.4 3.36348 22.4 4H24C24 2.93913 23.5786 1.92172 22.8284 1.17157C22.0783 0.421427 21.0609 0 20 0V1.6ZM16 24H20V22.4H16V24ZM24 20V16H22.4V20H24ZM20 24C21.0609 24 22.0783 23.5786 22.8284 22.8284C23.5786 22.0783 24 21.0609 24 20H22.4C22.4 20.6365 22.1471 21.247 21.6971 21.6971C21.247 22.1471 20.6365 22.4 20 22.4V24Z" fill="#1F1F1F"/>
</svg>
