<svg width="20" height="24" viewBox="0 0 20 24" fill="none" xmlns="http://www.w3.org/2000/svg">
<path d="M16.3008 3.52881C16.2131 3.52903 16.127 3.50572 16.0514 3.46131C13.9711 2.34756 12.1725 1.87506 10.0162 1.87506C7.87076 1.87506 5.83357 2.40381 3.98061 3.46131C3.71857 3.60943 3.39561 3.50631 3.24373 3.23443C3.17594 3.10321 3.16065 2.9511 3.20096 2.80901C3.24127 2.66692 3.33416 2.5455 3.46076 2.46943C5.45922 1.33598 7.71874 0.743354 10.0162 0.750056C12.3239 0.750056 14.3395 1.27881 16.5501 2.46006C16.6791 2.53097 16.7752 2.64961 16.8177 2.79053C16.8602 2.93144 16.8457 3.0834 16.7775 3.21381C16.7364 3.30639 16.6697 3.38527 16.5852 3.4411C16.5007 3.49693 16.402 3.52737 16.3008 3.52881ZM0.794981 9.43506C0.682396 9.43426 0.57277 9.39891 0.480918 9.33381C0.361414 9.24499 0.281043 9.11327 0.256736 8.96637C0.232428 8.81948 0.266081 8.66888 0.350606 8.54631C1.42357 6.97131 2.78811 5.73381 4.4142 4.86756C7.81639 3.04693 12.1725 3.03381 15.5854 4.85631C17.2111 5.72256 18.5761 6.94881 19.649 8.51256C19.7332 8.63524 19.7667 8.78574 19.7424 8.93253C19.7181 9.07932 19.6379 9.21103 19.5187 9.30006C19.4609 9.34328 19.3948 9.37419 19.3245 9.39085C19.2543 9.40751 19.1813 9.40958 19.1103 9.39692C19.0392 9.38427 18.9714 9.35716 18.9112 9.31728C18.851 9.2774 18.7997 9.22559 18.7603 9.16506C17.7853 7.74756 16.5501 6.63381 15.0872 5.85756C11.9775 4.20381 8.00061 4.20381 4.9017 5.86881C3.42795 6.65631 2.19279 7.78131 1.21779 9.19693C1.17575 9.27142 1.11413 9.33299 1.0396 9.37496C0.965069 9.41694 0.880475 9.43772 0.794981 9.43506ZM7.56701 23.0157C7.4954 23.0164 7.42448 23.0017 7.35905 22.9725C7.29362 22.9434 7.23522 22.9006 7.18779 22.8469C6.24514 21.8663 5.7342 21.2344 5.00998 19.8751C4.25998 18.4913 3.87232 16.8038 3.87232 14.9926C3.87232 11.6513 6.62436 8.92881 10.0054 8.92881C13.3865 8.92881 16.1404 11.6513 16.1404 14.9926C16.1426 15.065 16.1301 15.1372 16.1039 15.2048C16.0776 15.2723 16.0381 15.334 15.9876 15.386C15.9371 15.438 15.8766 15.4793 15.8099 15.5076C15.7431 15.5358 15.6713 15.5504 15.5988 15.5504C15.5263 15.5504 15.4545 15.5358 15.3878 15.5076C15.321 15.4793 15.2606 15.438 15.2101 15.386C15.1595 15.334 15.12 15.2723 15.0937 15.2048C15.0675 15.1372 15.055 15.065 15.0572 14.9926C15.0572 12.2701 12.7922 10.0538 10.0078 10.0538C7.22342 10.0538 4.95607 12.2701 4.95607 14.9926C4.95607 16.6126 5.30248 18.1088 5.96342 19.3238C6.65717 20.6176 7.13529 21.1688 7.96826 22.0463C8.06705 22.1555 8.12175 22.2975 8.12175 22.4447C8.12175 22.592 8.06705 22.734 7.96826 22.8432C7.86191 22.9505 7.71806 23.0123 7.56701 23.0157ZM15.3365 20.9344C14.047 20.9344 12.9094 20.5969 11.9775 19.9332C11.1836 19.3767 10.535 18.6376 10.0863 17.7781C9.63763 16.9187 9.40204 15.964 9.39936 14.9944C9.39632 14.9214 9.40808 14.8485 9.43394 14.7801C9.4598 14.7117 9.49923 14.6492 9.54985 14.5964C9.60046 14.5437 9.66123 14.5017 9.72849 14.473C9.79575 14.4443 9.86811 14.4295 9.94123 14.4295C10.0143 14.4295 10.0867 14.4443 10.154 14.473C10.2212 14.5017 10.282 14.5437 10.3326 14.5964C10.3832 14.6492 10.4227 14.7117 10.4485 14.7801C10.4744 14.8485 10.4861 14.9214 10.4831 14.9944C10.4849 15.7819 10.677 16.5573 11.0429 17.2547C11.4089 17.952 11.9379 18.5505 12.585 18.9994C13.3542 19.5394 14.2537 19.7963 15.3375 19.7963C15.7149 19.7896 16.0912 19.752 16.4625 19.6838C16.755 19.6276 17.0367 19.8301 17.0906 20.1451C17.1181 20.2904 17.0868 20.4408 17.0035 20.5631C16.9203 20.6854 16.792 20.7697 16.6467 20.7976C16.2151 20.8828 15.7765 20.928 15.3365 20.9326V20.9344ZM13.1583 23.2501C13.1107 23.2481 13.0635 23.2405 13.0176 23.2276C11.2945 22.7326 10.1676 22.0688 8.98639 20.8651C7.46904 19.3013 6.63514 17.2201 6.63514 14.9926C6.63514 13.1701 8.13045 11.6851 9.97217 11.6851C11.8139 11.6851 13.3097 13.1701 13.3097 14.9926C13.3097 16.1963 14.3175 17.1751 15.5634 17.1751C16.8094 17.1751 17.8172 16.1963 17.8172 14.9926C17.8172 10.7513 14.2954 7.30881 9.96139 7.30881C6.88404 7.30881 4.06686 9.08631 2.79936 11.8426C2.37748 12.7538 2.15998 13.8226 2.15998 14.9926C2.15998 15.8701 2.23545 17.2538 2.88561 19.0538C2.99436 19.3463 2.85326 19.6726 2.57154 19.7738C2.50459 19.7993 2.43318 19.811 2.36159 19.8082C2.29 19.8054 2.21972 19.7882 2.15496 19.7575C2.09021 19.7269 2.03232 19.6834 1.98477 19.6299C1.93722 19.5763 1.90099 19.5136 1.87826 19.4457C1.35545 18.0192 1.08762 16.5118 1.08701 14.9926C1.08701 13.6426 1.33639 12.4144 1.82389 11.3476C3.26529 8.20693 6.4617 6.17256 9.96139 6.17256C14.8917 6.17256 18.9009 10.1213 18.9009 14.9813C18.9009 16.8038 17.4056 18.2888 15.5634 18.2888C13.7212 18.2888 12.2259 16.8038 12.2259 14.9813C12.2264 13.7776 11.2186 12.7969 9.97264 12.7969C8.7267 12.7969 7.71889 13.7757 7.71889 14.9794C7.71889 16.9013 8.4342 18.7032 9.74529 20.0532C10.7765 21.1107 11.7609 21.6938 13.2886 22.1344C13.5811 22.2132 13.7437 22.5282 13.6678 22.8207C13.6441 22.9394 13.5808 23.0466 13.4882 23.1246C13.3956 23.2026 13.2793 23.2469 13.1583 23.2501Z" fill="#1F1F1F"/>
</svg>
