<svg width="24" height="18" viewBox="0 0 24 18" fill="none" xmlns="http://www.w3.org/2000/svg">
<path d="M3.2 17V17.8H4.8V17H3.2ZM11.2 17V17.8H12.8V17H11.2ZM4.8 17V16.2H3.2V17H4.8ZM11.2 16.2V17H12.8V16.2H11.2ZM8 13C8.84869 13 9.66263 13.3371 10.2627 13.9372C10.8629 14.5373 11.2 15.3513 11.2 16.2H12.8C12.8 14.9269 12.2943 13.706 11.3941 12.8058C10.4939 11.9057 9.27304 11.4 8 11.4V13ZM4.8 16.2C4.8 15.3513 5.13714 14.5373 5.73726 13.9372C6.33737 13.3371 7.15131 13 8 13V11.4C6.72696 11.4 5.50606 11.9057 4.60589 12.8058C3.70571 13.706 3.2 14.9269 3.2 16.2H4.8ZM8 3.39995C7.15131 3.39995 6.33737 3.73709 5.73726 4.33721C5.13714 4.93733 4.8 5.75126 4.8 6.59995H6.4C6.4 6.1756 6.56857 5.76864 6.86863 5.46858C7.16869 5.16852 7.57565 4.99995 8 4.99995V3.39995ZM11.2 6.59995C11.2 5.75126 10.8629 4.93733 10.2627 4.33721C9.66263 3.73709 8.84869 3.39995 8 3.39995V4.99995C8.42435 4.99995 8.83131 5.16852 9.13137 5.46858C9.43143 5.76864 9.6 6.1756 9.6 6.59995H11.2ZM8 9.79995C8.84869 9.79995 9.66263 9.46281 10.2627 8.86269C10.8629 8.26258 11.2 7.44864 11.2 6.59995H9.6C9.6 7.0243 9.43143 7.43126 9.13137 7.73132C8.83131 8.03138 8.42435 8.19995 8 8.19995V9.79995ZM8 8.19995C7.57565 8.19995 7.16869 8.03138 6.86863 7.73132C6.56857 7.43126 6.4 7.0243 6.4 6.59995H4.8C4.8 7.44864 5.13714 8.26258 5.73726 8.86269C6.33737 9.46281 7.15131 9.79995 8 9.79995V8.19995ZM2.4 1.79995H21.6V0.199951H2.4V1.79995ZM22.4 2.59995V15.4H24V2.59995H22.4ZM21.6 16.2H2.4V17.8H21.6V16.2ZM1.6 15.4V2.59995H0V15.4H1.6ZM2.4 16.2C2.18783 16.2 1.98434 16.1157 1.83431 15.9656C1.68429 15.8156 1.6 15.6121 1.6 15.4H0C0 16.0365 0.252856 16.6469 0.702944 17.097C1.15303 17.5471 1.76348 17.8 2.4 17.8V16.2ZM22.4 15.4C22.4 15.6121 22.3157 15.8156 22.1657 15.9656C22.0157 16.1157 21.8122 16.2 21.6 16.2V17.8C22.2365 17.8 22.847 17.5471 23.2971 17.097C23.7471 16.6469 24 16.0365 24 15.4H22.4ZM21.6 1.79995C21.8122 1.79995 22.0157 1.88424 22.1657 2.03427C22.3157 2.1843 22.4 2.38778 22.4 2.59995H24C24 1.96343 23.7471 1.35298 23.2971 0.902895C22.847 0.452808 22.2365 0.199951 21.6 0.199951V1.79995ZM2.4 0.199951C1.76348 0.199951 1.15303 0.452808 0.702944 0.902895C0.252856 1.35298 0 1.96343 0 2.59995H1.6C1.6 2.38778 1.68429 2.1843 1.83431 2.03427C1.98434 1.88424 2.18783 1.79995 2.4 1.79995V0.199951ZM14.4 6.59995H19.2V4.99995H14.4V6.59995ZM14.4 11.4H19.2V9.79995H14.4V11.4Z" fill="#1F1F1F"/>
</svg>
