<svg width="22" height="22" viewBox="0 0 22 22" fill="none" xmlns="http://www.w3.org/2000/svg">
<path d="M17.874 16.6284V17.8784C17.874 18.5688 17.3144 19.1284 16.624 19.1284H12.874" stroke="#1F1F1F" stroke-width="2" stroke-linecap="round" stroke-linejoin="round"/>
<path d="M12.874 4.12842H16.624V4.12842C17.3144 4.12842 17.874 4.68806 17.874 5.37842V6.62842" stroke="#1F1F1F" stroke-width="2" stroke-linecap="round" stroke-linejoin="round"/>
<path d="M9.66069 20.3717L2.16069 19.3V19.3C1.85291 19.2561 1.62422 18.9926 1.62402 18.6817V4.10417L1.62402 4.10414C1.6238 3.80919 1.8298 3.55422 2.11822 3.4925L9.61822 1.64166V1.64166C9.95575 1.5694 10.288 1.78445 10.3602 2.12198C10.3694 2.16515 10.3741 2.20918 10.3741 2.25333V19.7533V19.7533C10.3738 20.0985 10.0939 20.3782 9.74868 20.3779C9.71924 20.3779 9.68984 20.3758 9.6607 20.3717L9.66069 20.3717Z" stroke="#1F1F1F" stroke-width="2" stroke-linecap="round" stroke-linejoin="round"/>
<path d="M17.874 9.12744L20.374 11.6274H13.499" stroke="#1F1F1F" stroke-width="2" stroke-linecap="round" stroke-linejoin="round"/>
<path d="M17.875 14.125L20.375 11.625" stroke="#1F1F1F" stroke-width="2" stroke-linecap="round" stroke-linejoin="round"/>
</svg>
