<svg width="24" height="24" viewBox="0 0 24 24" fill="none" xmlns="http://www.w3.org/2000/svg">
<path d="M18.1846 10.125H5.81535C5.43408 10.125 5.125 10.4341 5.125 10.8153V20.6846C5.125 21.0659 5.43408 21.375 5.81535 21.375H18.1846C18.5659 21.375 18.875 21.0659 18.875 20.6846V10.8153C18.875 10.4341 18.5659 10.125 18.1846 10.125Z" stroke="#1F1F1F" stroke-width="2" stroke-linecap="round" stroke-linejoin="round"/>
<path d="M7.625 10.125V7V7C7.625 4.58376 9.58375 2.625 12 2.625C14.4162 2.625 16.375 4.58375 16.375 7V7V10.125" stroke="#1F1F1F" stroke-width="2" stroke-linecap="round" stroke-linejoin="round"/>
<path d="M12 17.625C13.0355 17.625 13.875 16.7855 13.875 15.75C13.875 14.7145 13.0355 13.875 12 13.875C10.9645 13.875 10.125 14.7145 10.125 15.75C10.125 16.7855 10.9645 17.625 12 17.625Z" stroke="#1F1F1F" stroke-width="2" stroke-linecap="round" stroke-linejoin="round"/>
</svg>
