<svg width="29" height="28" viewBox="0 0 29 28" fill="none" xmlns="http://www.w3.org/2000/svg">
<g clip-path="url(#clip0_924_1346)">
<path d="M22.4273 10.5037C22.4762 10.1166 22.5 9.72316 22.5 9.33366C22.5 8.01295 22.1675 6.76051 21.5966 5.66863C22.9789 5.71556 24 6.76833 24 8.16699C24 9.26658 23.3689 10.1524 22.4273 10.5037ZM25.9768 17.3341C25.0782 15.9634 23.754 14.8463 22.2439 13.9603C23.5922 14.0425 24.867 14.4706 25.8375 15.0594C26.4062 15.4045 26.8404 15.7866 27.1228 16.1529C27.3337 16.4266 27.4389 16.6625 27.4794 16.8514C27.4192 16.8884 27.3312 16.935 27.2078 16.987C26.8963 17.1182 26.4738 17.2366 25.9768 17.3341ZM6.57267 10.5037C5.63111 10.1524 5 9.26658 5 8.16699C5 6.76833 6.02112 5.71556 7.40341 5.66863C6.83251 6.76051 6.5 8.01295 6.5 9.33366C6.5 9.72316 6.52379 10.1166 6.57267 10.5037ZM6.94144 13.8533C5.35445 14.7558 3.95838 15.9076 3.02317 17.3341C2.52622 17.2366 2.10367 17.1182 1.79222 16.987C1.66874 16.935 1.58074 16.8884 1.52058 16.8514C1.56115 16.6622 1.66651 16.4256 1.87833 16.1497C2.16185 15.7804 2.59785 15.3938 3.16945 15.0406C4.18246 14.4146 5.52645 13.9519 6.94144 13.8533ZM18.1667 9.33366C18.1667 11.348 16.5144 13.0003 14.5 13.0003C12.4856 13.0003 10.8333 11.348 10.8333 9.33366C10.8333 7.31928 12.4856 5.66699 14.5 5.66699C16.5144 5.66699 18.1667 7.31928 18.1667 9.33366ZM6.16722 20.9594C6.19063 20.0845 6.96113 18.909 8.57783 17.8764C10.1595 16.8663 12.3072 16.167 14.5 16.167C16.6928 16.167 18.8405 16.8663 20.4222 17.8764C22.0389 18.909 22.8094 20.0845 22.8328 20.9594C22.8221 20.9722 22.8038 20.9917 22.7738 21.0179C22.6473 21.1286 22.4087 21.2686 22.0239 21.413C21.2606 21.6992 20.1872 21.9066 19.0426 22.0497C17.913 22.1909 16.7761 22.2623 15.9167 22.2981C15.4883 22.3159 15.1317 22.3248 14.8832 22.3293C14.759 22.3315 14.6619 22.3326 14.5965 22.3331L14.5227 22.3336L14.5048 22.3337L14.5007 22.3337H14.5001H14.5001H14.4999H14.4999H14.4993L14.4952 22.3337L14.4773 22.3336L14.4035 22.3331C14.3381 22.3326 14.241 22.3315 14.1168 22.3293C13.8683 22.3248 13.5117 22.3159 13.0833 22.2981C12.2239 22.2623 11.087 22.1909 9.95737 22.0497C8.81276 21.9066 7.7394 21.6992 6.97612 21.413C6.59129 21.2686 6.35267 21.1286 6.22621 21.0179C6.19622 20.9917 6.17792 20.9722 6.16722 20.9594ZM22.8462 20.9403C22.8464 20.9403 22.8455 20.9422 22.843 20.946C22.8446 20.9422 22.8459 20.9403 22.8462 20.9403ZM6.15704 20.946C6.15446 20.9421 6.15362 20.9403 6.15385 20.9403C6.15407 20.9403 6.15536 20.9422 6.15704 20.946Z" stroke="#F1F1F1" stroke-width="2"/>
</g>
<defs>
<clipPath id="clip0_924_1346">
<rect width="28" height="28" fill="white" transform="translate(0.5)"/>
</clipPath>
</defs>
</svg>
