<svg width="29" height="28" viewBox="0 0 29 28" fill="none" xmlns="http://www.w3.org/2000/svg">
<g clip-path="url(#clip0_924_1300)">
<path d="M21.5 13.4501H21.5081L21.5161 13.4498C23.2231 13.3948 24.8779 13.8921 26.0969 14.6317C26.7057 15.0011 27.1908 15.4219 27.5188 15.8475C27.8484 16.2751 28 16.6809 28 17.0334C28 17.0341 28.0006 17.0398 27.9925 17.0553C27.9831 17.0734 27.9616 17.1054 27.9152 17.1486C27.8185 17.2385 27.6518 17.3423 27.4018 17.4476C26.9757 17.627 26.3931 17.7756 25.7326 17.8863C24.6572 16.0784 22.781 14.6874 20.6433 13.6839C20.7013 13.6111 20.7625 13.5339 20.8251 13.4501H21.5ZM7.5 13.3334H8.16574L8.38924 13.6687C6.23803 14.6733 4.3482 16.0693 3.26741 17.8863C2.60686 17.7756 2.02429 17.627 1.5982 17.4476C1.34816 17.3423 1.1815 17.2385 1.08482 17.1486C1.03843 17.1054 1.01686 17.0734 1.00749 17.0553C0.999807 17.0405 0.999966 17.0347 0.999997 17.0335L1 17.0334C1 16.6809 1.15157 16.275 1.48174 15.8449C1.81035 15.417 2.29632 14.9921 2.9066 14.615C4.12835 13.86 5.78777 13.3334 7.5 13.3334ZM18.6667 9.33341C18.6667 11.6239 16.7905 13.5001 14.5 13.5001C12.2095 13.5001 10.3333 11.6239 10.3333 9.33341C10.3333 7.04289 12.2095 5.16675 14.5 5.16675C16.7905 5.16675 18.6667 7.04289 18.6667 9.33341ZM14.5 22.8334H14.4998H14.4988L14.4942 22.8334L14.4752 22.8333L14.3993 22.8329C14.3325 22.8323 14.2338 22.8312 14.1079 22.8289C13.856 22.8244 13.4954 22.8154 13.0625 22.7974C12.1953 22.7613 11.0435 22.6891 9.89535 22.5456C8.73971 22.4012 7.6197 22.1881 6.80056 21.8809C6.38939 21.7267 6.0878 21.561 5.89696 21.394C5.71255 21.2326 5.66667 21.1041 5.66667 21.0001C5.66667 19.8606 6.61997 18.5333 8.30871 17.4548C9.96724 16.3956 12.2078 15.6667 14.5 15.6667C16.7922 15.6667 19.0328 16.3956 20.6913 17.4548C22.38 18.5333 23.3333 19.8606 23.3333 21.0001C23.3333 21.1041 23.2874 21.2326 23.103 21.394C22.9122 21.561 22.6106 21.7267 22.1994 21.8809C21.3803 22.1881 20.2603 22.4012 19.1046 22.5456C17.9565 22.6891 16.8047 22.7613 15.9375 22.7974C15.5046 22.8154 15.144 22.8244 14.8921 22.8289C14.7662 22.8312 14.6675 22.8323 14.6007 22.8329L14.5248 22.8333L14.5058 22.8334L14.5012 22.8334H14.5002H14.5H14.5ZM21.8089 11.1524C21.9373 10.5705 22 9.94926 22 9.33341C22 7.82616 21.5373 6.41277 20.7712 5.25101C20.9936 5.1948 21.2303 5.16675 21.5 5.16675C23.2072 5.16675 24.5 6.45956 24.5 8.16675C24.5 9.76936 23.3607 11.0068 21.8089 11.1524ZM8.22876 5.25101C7.46273 6.41277 7 7.82616 7 9.33341C7 9.94926 7.06272 10.5705 7.19114 11.1524C5.63928 11.0068 4.5 9.76937 4.5 8.16675C4.5 6.45956 5.79281 5.16675 7.5 5.16675C7.7697 5.16675 8.00642 5.1948 8.22876 5.25101Z" fill="white" stroke="white"/>
</g>
<defs>
<clipPath id="clip0_924_1300">
<rect width="28" height="28" fill="white" transform="translate(0.5)"/>
</clipPath>
</defs>
</svg>
