<svg width="26" height="20" viewBox="0 0 26 20" fill="none" xmlns="http://www.w3.org/2000/svg">
<path d="M3.16683 19.3333C2.52516 19.3333 1.97566 19.1046 1.51833 18.6473C1.061 18.19 0.83272 17.6409 0.833498 17V2.99996C0.833498 2.35829 1.06216 1.80879 1.5195 1.35146C1.97683 0.894128 2.52594 0.66585 3.16683 0.666628H9.20433C9.51544 0.666628 9.81216 0.724961 10.0945 0.841628C10.3768 0.958295 10.6246 1.12357 10.8377 1.33746L12.5002 2.99996H21.8335C22.4752 2.99996 23.0247 3.22863 23.482 3.68596C23.9393 4.14329 24.1676 4.69241 24.1668 5.33329H5.50016C4.8585 5.33329 4.309 5.56196 3.85166 6.0193C3.39433 6.47663 3.16605 7.02574 3.16683 7.66663V17L5.471 9.32913C5.62655 8.82357 5.91355 8.41991 6.332 8.11813C6.75044 7.81635 7.21205 7.66585 7.71683 7.66663H22.7668C23.5641 7.66663 24.1913 7.98279 24.6487 8.61513C25.106 9.24746 25.2273 9.93268 25.0127 10.6708L22.9127 17.6708C22.7571 18.1764 22.4701 18.58 22.0517 18.8818C21.6332 19.1836 21.1716 19.3341 20.6668 19.3333H3.16683Z" fill="white"/>
</svg>
