<svg width="29" height="28" viewBox="0 0 29 28" fill="none" xmlns="http://www.w3.org/2000/svg">
<path d="M5.16671 23.3332C4.52504 23.3332 3.97554 23.1045 3.51821 22.6472C3.06088 22.1898 2.8326 21.6407 2.83338 20.9998V6.99984C2.83338 6.35817 3.06204 5.80867 3.51938 5.35134C3.97671 4.89401 4.52582 4.66573 5.16671 4.66651H11.2042C11.5153 4.66651 11.812 4.72484 12.0944 4.84151C12.3767 4.95817 12.6244 5.12345 12.8375 5.33734L14.5 6.99984H23.8334C24.475 6.99984 25.0245 7.22851 25.4819 7.68584C25.9392 8.14317 26.1675 8.69228 26.1667 9.33317H13.5375L11.2042 6.99984H5.16671V20.9998L7.47088 13.329C7.62643 12.8235 7.91343 12.4198 8.33188 12.118C8.75032 11.8162 9.21193 11.6657 9.71671 11.6665H24.7667C25.5639 11.6665 26.1912 11.9827 26.6485 12.615C27.1059 13.2473 27.2272 13.9326 27.0125 14.6707L24.9125 21.6707C24.757 22.1762 24.47 22.5799 24.0515 22.8817C23.6331 23.1835 23.1715 23.334 22.6667 23.3332H5.16671ZM7.61671 20.9998H22.6667L24.7667 13.9998H9.71671L7.61671 20.9998Z" fill="#F1F1F1"/>
</svg>
