<svg width="29" height="28" viewBox="0 0 29 28" fill="none" xmlns="http://www.w3.org/2000/svg">
<path d="M14.5136 10.6806C13.696 10.6806 12.9304 10.9978 12.3507 11.5774C11.7738 12.1571 11.4539 12.9228 11.4539 13.7403C11.4539 14.5579 11.7738 15.3235 12.3507 15.9032C12.9304 16.4802 13.696 16.8001 14.5136 16.8001C15.3312 16.8001 16.0968 16.4802 16.6765 15.9032C17.2535 15.3235 17.5734 14.5579 17.5734 13.7403C17.5734 12.9228 17.2535 12.1571 16.6765 11.5774C16.3934 11.2921 16.0564 11.0659 15.6851 10.912C15.3138 10.758 14.9156 10.6793 14.5136 10.6806ZM25.7875 17.12L23.9992 15.5915C24.0839 15.072 24.1277 14.5415 24.1277 14.0138C24.1277 13.486 24.0839 12.9528 23.9992 12.436L25.7875 10.9075C25.9225 10.7919 26.0192 10.6378 26.0647 10.4659C26.1101 10.294 26.1021 10.1123 26.0417 9.94502L26.0171 9.87393C25.525 8.49769 24.7876 7.22201 23.8406 6.10869L23.7914 6.05127C23.6764 5.91606 23.5231 5.81887 23.3518 5.77249C23.1804 5.72612 22.9991 5.73275 22.8316 5.7915L20.6113 6.58174C19.791 5.90908 18.8777 5.37861 17.8878 5.00947L17.4585 2.68799C17.4262 2.5131 17.3413 2.35221 17.2153 2.22669C17.0893 2.10117 16.9281 2.01696 16.7531 1.98525L16.6792 1.97158C15.2574 1.71455 13.7589 1.71455 12.3371 1.97158L12.2632 1.98525C12.0882 2.01696 11.927 2.10117 11.801 2.22669C11.675 2.35221 11.5902 2.5131 11.5578 2.68799L11.1257 5.02041C10.1453 5.39249 9.23189 5.92168 8.42144 6.58721L6.18472 5.7915C6.01728 5.73228 5.83579 5.72542 5.66435 5.77182C5.49292 5.81821 5.33966 5.91568 5.22495 6.05127L5.17573 6.10869C4.23044 7.2232 3.49319 8.49856 2.99917 9.87393L2.97456 9.94502C2.85151 10.2868 2.95269 10.6696 3.22886 10.9075L5.03901 12.4524C4.95425 12.9665 4.91323 13.4915 4.91323 14.011C4.91323 14.536 4.95425 15.061 5.03901 15.5696L3.23433 17.1146C3.09924 17.2302 3.00255 17.3842 2.95713 17.5562C2.9117 17.7281 2.91969 17.9098 2.98003 18.0771L3.00464 18.1481C3.49956 19.5235 4.22964 20.795 5.1812 21.9134L5.23042 21.9708C5.34541 22.106 5.49867 22.2032 5.67 22.2496C5.84134 22.2959 6.0227 22.2893 6.19019 22.2306L8.42691 21.4349C9.24175 22.1048 10.1496 22.6353 11.1312 23.0017L11.5632 25.3341C11.5956 25.509 11.6805 25.6699 11.8065 25.7954C11.9325 25.9209 12.0937 26.0051 12.2687 26.0368L12.3425 26.0505C13.7784 26.3089 15.2489 26.3089 16.6847 26.0505L16.7585 26.0368C16.9336 26.0051 17.0948 25.9209 17.2208 25.7954C17.3468 25.6699 17.4316 25.509 17.464 25.3341L17.8933 23.0126C18.8832 22.6407 19.7964 22.113 20.6167 21.4403L22.8371 22.2306C23.0045 22.2898 23.186 22.2967 23.3574 22.2503C23.5289 22.2039 23.6821 22.1064 23.7968 21.9708L23.846 21.9134C24.7976 20.7896 25.5277 19.5235 26.0226 18.1481L26.0472 18.0771C26.1648 17.738 26.0636 17.3579 25.7875 17.12ZM14.5136 18.5474C11.8585 18.5474 9.70659 16.3954 9.70659 13.7403C9.70659 11.0853 11.8585 8.9333 14.5136 8.9333C17.1687 8.9333 19.3207 11.0853 19.3207 13.7403C19.3207 16.3954 17.1687 18.5474 14.5136 18.5474Z" fill="white"/>
</svg>
