<svg width="25" height="26" viewBox="0 0 25 26" fill="none" xmlns="http://www.w3.org/2000/svg">
<path d="M23.7875 16.1092L21.9965 14.5779C22.0812 14.0584 22.125 13.5279 22.125 12.9975C22.125 12.467 22.0812 11.9365 21.9965 11.417L23.7875 9.88574C23.9226 9.7701 24.0193 9.61607 24.0647 9.44414C24.1101 9.27221 24.1021 9.09052 24.0418 8.92324L24.0172 8.85215C23.5241 7.4741 22.7858 6.19662 21.8379 5.08144L21.7887 5.02402C21.6737 4.88881 21.5204 4.79162 21.3491 4.74525C21.1777 4.69888 20.9964 4.7055 20.8289 4.76426L18.6058 5.55449C17.7855 4.88184 16.8695 4.35137 15.8797 3.97949L15.4504 1.65527C15.418 1.48039 15.3331 1.3195 15.2071 1.19398C15.0811 1.06846 14.9199 0.984249 14.7449 0.952539L14.6711 0.938867C13.2465 0.681836 11.748 0.681836 10.3234 0.938867L10.2496 0.952539C10.0746 0.984249 9.91336 1.06846 9.78735 1.19398C9.66134 1.3195 9.57651 1.48039 9.54412 1.65527L9.11209 3.99043C8.13015 4.36238 7.21571 4.89257 6.40506 5.55996L4.16561 4.76426C3.99817 4.70504 3.81667 4.69817 3.64524 4.74457C3.47381 4.79097 3.32055 4.88844 3.20584 5.02402L3.15662 5.08144C2.20983 6.19741 1.47163 7.47467 0.977325 8.85215L0.952715 8.92324C0.829669 9.26504 0.930841 9.64785 1.20701 9.88574L3.0199 11.4334C2.93514 11.9475 2.89412 12.4725 2.89412 12.9947C2.89412 13.5197 2.93514 14.0447 3.0199 14.5561L1.20701 16.1037C1.07192 16.2194 0.975237 16.3734 0.929812 16.5453C0.884388 16.7172 0.892376 16.8989 0.952715 17.0662L0.977325 17.1373C1.47225 18.5154 2.20506 19.7869 3.15662 20.908L3.20584 20.9654C3.32083 21.1006 3.47409 21.1978 3.64542 21.2442C3.81676 21.2906 3.99812 21.2839 4.16561 21.2252L6.40506 20.4295C7.2199 21.0994 8.13045 21.6299 9.11209 21.999L9.54412 24.3342C9.57651 24.5091 9.66134 24.67 9.78735 24.7955C9.91336 24.921 10.0746 25.0052 10.2496 25.0369L10.3234 25.0506C11.7611 25.309 13.2334 25.309 14.6711 25.0506L14.7449 25.0369C14.9199 25.0052 15.0811 24.921 15.2071 24.7955C15.3331 24.67 15.418 24.5091 15.4504 24.3342L15.8797 22.01C16.8691 21.6391 17.7903 21.1069 18.6058 20.435L20.8289 21.2252C20.9963 21.2844 21.1778 21.2913 21.3493 21.2449C21.5207 21.1985 21.6739 21.101 21.7887 20.9654L21.8379 20.908C22.7894 19.7842 23.5222 18.5154 24.0172 17.1373L24.0418 17.0662C24.1648 16.7299 24.0637 16.3471 23.7875 16.1092ZM20.0551 11.7396C20.1234 12.1525 20.159 12.5764 20.159 13.0002C20.159 13.424 20.1234 13.8479 20.0551 14.2607L19.8746 15.3572L21.9172 17.1045C21.6075 17.8179 21.2167 18.4932 20.7523 19.117L18.2148 18.2174L17.3562 18.9229C16.7027 19.4588 15.9754 19.8799 15.1879 20.1752L14.1461 20.5662L13.6566 23.2186C12.8844 23.3061 12.1047 23.3061 11.3324 23.2186L10.8429 20.5607L9.80936 20.1643C9.03006 19.8689 8.30545 19.4479 7.6574 18.9146L6.79881 18.2064L4.2449 19.1143C3.78006 18.4881 3.39178 17.8127 3.08006 17.1018L5.14451 15.3381L4.96678 14.2443C4.90115 13.8369 4.86561 13.4158 4.86561 13.0002C4.86561 12.5818 4.89842 12.1635 4.96678 11.7561L5.14451 10.6623L3.08006 8.89863C3.38904 8.18496 3.78006 7.5123 4.2449 6.88613L6.79881 7.79395L7.6574 7.08574C8.30545 6.55254 9.03006 6.13144 9.80936 5.83613L10.8457 5.44512L11.3351 2.7873C12.1035 2.6998 12.8883 2.6998 13.6594 2.7873L14.1488 5.43965L15.1906 5.83066C15.9754 6.12598 16.7055 6.54707 17.359 7.08301L18.2176 7.78848L20.7551 6.88887C21.2199 7.51504 21.6082 8.19043 21.9199 8.90137L19.8773 10.6486L20.0551 11.7396ZM12.5 7.91426C9.84217 7.91426 7.68748 10.0689 7.68748 12.7268C7.68748 15.3846 9.84217 17.5393 12.5 17.5393C15.1578 17.5393 17.3125 15.3846 17.3125 12.7268C17.3125 10.0689 15.1578 7.91426 12.5 7.91426ZM14.6656 14.8924C14.3816 15.1772 14.044 15.4031 13.6723 15.557C13.3007 15.711 12.9023 15.7899 12.5 15.7893C11.6824 15.7893 10.914 15.4693 10.3344 14.8924C10.0495 14.6083 9.82361 14.2708 9.66969 13.8991C9.51577 13.5275 9.43685 13.129 9.43748 12.7268C9.43748 11.9092 9.7574 11.1408 10.3344 10.5611C10.914 9.98144 11.6824 9.66426 12.5 9.66426C13.3176 9.66426 14.0859 9.98144 14.6656 10.5611C14.9505 10.8452 15.1764 11.1827 15.3303 11.5544C15.4842 11.9261 15.5631 12.3245 15.5625 12.7268C15.5625 13.5443 15.2426 14.3127 14.6656 14.8924Z" fill="#F1F1F1"/>
</svg>
