<svg width="20" height="18" viewBox="0 0 20 18" fill="none" xmlns="http://www.w3.org/2000/svg">
<path d="M10 5.99658H10.0003C11.1192 5.99599 12.0547 6.38196 12.8359 7.16314C13.6171 7.94432 14.0034 8.88026 14.0034 10V10.0003C14.004 11.1192 13.618 12.0547 12.8369 12.8359C12.0557 13.6171 11.1197 14.0034 10 14.0034H9.99974C8.88083 14.004 7.94532 13.618 7.16414 12.8369C6.38295 12.0557 5.99658 11.1197 5.99658 10L5.99658 9.99973C5.99599 8.88083 6.38196 7.94531 7.16314 7.16414C7.94433 6.38295 8.88026 5.99658 10 5.99658ZM0.496584 16.0006V16V4C0.496584 3.58287 0.639433 3.23784 0.939138 2.93814C1.23883 2.63845 1.58333 2.49608 1.9994 2.49658H2H5.15H5.36711L5.51454 2.3372L7.21711 0.496582H12.7829L14.4855 2.3372L14.6329 2.49658H14.85H18C18.4171 2.49658 18.7622 2.63943 19.0619 2.93914C19.3616 3.23882 19.5039 3.58333 19.5034 3.9994V4V16C19.5034 16.4171 19.3606 16.7622 19.0609 17.0619C18.7612 17.3616 18.4167 17.5039 18.0006 17.5034H18H2C1.58288 17.5034 1.23784 17.3606 0.938138 17.0609C0.638451 16.7612 0.496078 16.4167 0.496584 16.0006ZM18 16.4966H18.4966V16V4V3.50342H18H14.1691L12.4918 1.66528L12.3441 1.50342H12.125H7.875H7.65588L7.50818 1.66528L5.83088 3.50342H2H1.50342V4V16V16.4966H2H18ZM7.87386 12.1261C8.45281 12.7051 9.17185 12.9966 10 12.9966C10.8281 12.9966 11.5472 12.7051 12.1261 12.1261C12.7051 11.5472 12.9966 10.8281 12.9966 10C12.9966 9.17185 12.7051 8.45281 12.1261 7.87386C11.5472 7.29492 10.8281 7.00342 10 7.00342C9.17185 7.00342 8.45281 7.29492 7.87386 7.87386C7.29492 8.45281 7.00342 9.17185 7.00342 10C7.00342 10.8281 7.29492 11.5472 7.87386 12.1261Z" fill="black" fill-opacity="0.8" stroke="#717171" stroke-width="0.993164"/>
</svg>
