<svg width="20" height="20" viewBox="0 0 20 20" fill="none" xmlns="http://www.w3.org/2000/svg">
<path d="M1.4585 5.30829L18.5752 1.66663" stroke="#1F1F1F" stroke-width="1.5" stroke-linecap="round" stroke-linejoin="round"/>
<path d="M11.3335 0.652414L7.6668 1.43158V1.43158C6.99122 1.57368 6.55875 2.23653 6.70085 2.9121C6.70116 2.91359 6.70148 2.91509 6.7018 2.91658L6.9618 4.13991L13.0751 2.83991L12.8151 1.61741V1.61741C12.6727 0.941916 12.0096 0.509811 11.3341 0.652286C11.3339 0.652329 11.3337 0.652372 11.3335 0.652415L11.3335 0.652414Z" stroke="#1F1F1F" stroke-width="1.5" stroke-linecap="round" stroke-linejoin="round"/>
<path d="M8.9585 14.9999V8.74988" stroke="#1F1F1F" stroke-width="1.5" stroke-linecap="round" stroke-linejoin="round"/>
<path d="M12.7085 14.9999V8.74988" stroke="#1F1F1F" stroke-width="1.5" stroke-linecap="round" stroke-linejoin="round"/>
<path d="M15.5217 4.99988H17.7092L16.555 18.2282V18.2282C16.5011 18.8779 15.9569 19.3771 15.305 19.3749H6.35917V19.3749C5.70915 19.3745 5.1679 18.876 5.11417 18.2282L4.25 7.81404" stroke="#1F1F1F" stroke-width="1.5" stroke-linecap="round" stroke-linejoin="round"/>
</svg>
