<svg width="20" height="22" viewBox="0 0 20 22" fill="none" xmlns="http://www.w3.org/2000/svg">
<path d="M15.625 9.89818V0.883179" stroke="#1F1F1F" stroke-width="1.5" stroke-linecap="round" stroke-linejoin="round"/>
<path d="M15.625 21.1332V16.6482" stroke="#1F1F1F" stroke-width="1.5" stroke-linecap="round" stroke-linejoin="round"/>
<path fill-rule="evenodd" clip-rule="evenodd" d="M19 13.2657C19 15.1297 17.489 16.6408 15.625 16.6408C13.761 16.6408 12.25 15.1297 12.25 13.2657C12.25 11.4018 13.761 9.89075 15.625 9.89075V9.89075C17.489 9.89075 19 11.4018 19 13.2657V13.2657Z" stroke="#1F1F1F" stroke-width="1.5" stroke-linecap="round" stroke-linejoin="round"/>
<path d="M4.375 7.64819V21.1332" stroke="#1F1F1F" stroke-width="1.5" stroke-linecap="round" stroke-linejoin="round"/>
<path fill-rule="evenodd" clip-rule="evenodd" d="M7.75 4.26563V4.26563C7.75 2.40167 6.23896 0.890625 4.375 0.890625C2.51104 0.890625 1 2.40167 1 4.26563C1 6.12959 2.51104 7.64063 4.375 7.64063V7.64063C6.23896 7.64063 7.75 6.12959 7.75 4.26563V4.26563V4.26563Z" stroke="#1F1F1F" stroke-width="1.5" stroke-linecap="round" stroke-linejoin="round"/>
</svg>
