<svg width="34" height="34" viewBox="0 0 34 34" fill="none" xmlns="http://www.w3.org/2000/svg">
<path opacity="0.4" d="M22.6178 30.5826H10.6309C5.94314 30.5826 2.79395 27.2948 2.79395 22.4005V11.1039C2.79395 6.2096 5.94314 2.92041 10.6309 2.92041H22.6192C27.307 2.92041 30.4562 6.2096 30.4562 11.1039V22.4005C30.4562 27.2948 27.307 30.5826 22.6178 30.5826" fill="#6A7381"/>
<path fill-rule="evenodd" clip-rule="evenodd" d="M15.581 12.1528C15.581 14.0476 14.0388 15.5898 12.1439 15.5898C10.2477 15.5898 8.7069 14.0476 8.7069 12.1528C8.7069 10.2579 10.2477 8.71434 12.1439 8.71434C14.0388 8.71434 15.581 10.2579 15.581 12.1528ZM26.8609 19.6389C27.1831 19.9515 27.4141 20.3083 27.5663 20.6887C28.0268 21.8394 27.7876 23.2225 27.2952 24.3622C26.7115 25.719 25.594 26.7439 24.1859 27.1921C23.5608 27.3926 22.9052 27.4784 22.251 27.4784H10.6591C9.50561 27.4784 8.48487 27.21 7.64809 26.7066C7.12389 26.3912 7.03122 25.6651 7.41988 25.1921C8.06994 24.4037 8.7117 23.6126 9.359 22.8145C10.5927 21.2876 11.424 20.845 12.3479 21.2336C12.7227 21.3941 13.0989 21.6361 13.4862 21.8906C14.518 22.5738 15.9523 23.5116 17.8416 22.4936C19.1331 21.7875 19.8827 20.5791 20.5352 19.5273L20.5484 19.5061C20.5923 19.4357 20.6358 19.3654 20.6792 19.2952C20.9011 18.9367 21.1196 18.5836 21.3672 18.2585C21.6742 17.8561 22.8139 16.5974 24.2869 17.4937C25.226 18.058 26.0158 18.8215 26.8609 19.6389Z" fill="#6A7381"/>
</svg>
