<svg width="29" height="36" viewBox="0 0 29 36" fill="none" xmlns="http://www.w3.org/2000/svg">
<path d="M21.1987 19.0788C22.489 17.7115 23.3507 15.9964 23.6773 14.1451C24.004 12.2937 23.7813 10.3873 23.0368 8.66104C22.2924 6.93481 21.0587 5.46438 19.4881 4.43128C17.9174 3.39819 16.0787 2.84766 14.1987 2.84766C12.3188 2.84766 10.48 3.39819 8.90942 4.43128C7.3388 5.46438 6.1051 6.93481 5.36063 8.66104C4.61615 10.3873 4.3935 12.2937 4.72015 14.1451C5.0468 15.9964 5.90845 17.7115 7.19874 19.0788C8.09245 20.0423 9.17546 20.811 10.38 21.3366C11.5845 21.8623 12.8845 22.1336 14.1987 22.1336C15.5129 22.1336 16.813 21.8623 18.0175 21.3366C19.222 20.811 20.305 20.0423 21.1987 19.0788ZM20.8237 6.84876C22.0756 8.31014 22.8052 10.1467 22.8975 12.0688H19.09C19.08 11.8338 19.0737 11.5988 19.0487 11.3663C19.035 11.2413 19.0087 11.11 18.9912 10.9825C18.955 10.7325 18.9187 10.4825 18.8662 10.2325C18.8337 10.0813 18.79 9.93126 18.7512 9.78126C18.6937 9.56001 18.635 9.33876 18.5637 9.12001C18.5125 8.96251 18.4537 8.80876 18.395 8.65251C18.3462 8.52751 18.3062 8.39001 18.2525 8.26001C18.3025 8.24001 18.3475 8.21251 18.3962 8.19251C18.7989 8.0326 19.1916 7.84894 19.5725 7.64251C19.5937 7.63126 19.6137 7.61751 19.6337 7.60626C19.9938 7.40293 20.3423 7.17967 20.6775 6.93751C20.7237 6.90751 20.7762 6.88251 20.8237 6.84876ZM20.185 6.18001C19.8798 6.40856 19.5622 6.62013 19.2337 6.81376C19.1925 6.83626 19.1562 6.86501 19.1162 6.88751C18.7123 7.09773 18.2947 7.28064 17.8662 7.43501C17.7575 7.22376 17.6312 7.02251 17.51 6.81876C17.4475 6.71251 17.385 6.60251 17.325 6.49876C17.0887 6.12878 16.8312 5.77277 16.5537 5.43251C16.4937 5.35876 16.4287 5.29251 16.3637 5.22126C16.1375 4.95876 15.905 4.70626 15.6562 4.47126C15.5462 4.36501 15.43 4.26751 15.315 4.16501C15.2 4.06251 15.0575 3.91501 14.9187 3.81001C16.8935 3.97196 18.7522 4.80886 20.1825 6.18001H20.185ZM10.1987 12.0688C10.2075 11.8625 10.2112 11.655 10.2325 11.4513C10.245 11.3375 10.2687 11.225 10.285 11.1125C10.3187 10.875 10.3525 10.6388 10.4037 10.4038C10.4325 10.27 10.4725 10.1375 10.5062 10.0038C10.5612 9.79251 10.6175 9.58126 10.685 9.37876C10.7312 9.24001 10.7862 9.10126 10.8387 8.96376C10.8912 8.82626 10.9437 8.69501 11 8.56251C11.0387 8.57376 11.0787 8.57751 11.1175 8.58876C11.5824 8.72431 12.0554 8.83036 12.5337 8.90626C12.5837 8.91376 12.6337 8.91751 12.6837 8.92501C13.6896 9.07834 14.7129 9.07834 15.7187 8.92501C15.77 8.91751 15.82 8.91376 15.87 8.90626C16.3479 8.83049 16.8205 8.72445 17.285 8.58876C17.3237 8.57751 17.3637 8.57376 17.4025 8.56251C17.4587 8.69501 17.5137 8.82876 17.5637 8.96376C17.6137 9.09876 17.6712 9.24001 17.7175 9.37876C17.785 9.58751 17.8425 9.79876 17.8962 10.0038C17.93 10.1375 17.97 10.27 17.9987 10.4038C18.05 10.6388 18.0837 10.875 18.1175 11.1125C18.1337 11.225 18.1575 11.3375 18.17 11.4513C18.1912 11.655 18.195 11.8625 18.2037 12.0688H10.1987ZM18.1987 12.955C18.19 13.1613 18.1862 13.3675 18.165 13.5725C18.1525 13.6863 18.1287 13.8 18.1125 13.9138C18.0787 14.15 18.045 14.3863 17.9937 14.62C17.965 14.755 17.925 14.8875 17.8912 15.0213C17.8362 15.2313 17.78 15.4425 17.7125 15.6463C17.6662 15.785 17.6112 15.9238 17.5587 16.0613C17.5062 16.1988 17.4537 16.33 17.3975 16.4625C17.3575 16.4513 17.3175 16.4475 17.2787 16.4363C16.8211 16.3017 16.3551 16.1973 15.8837 16.1238C15.815 16.1125 15.7462 16.1075 15.6775 16.0975C15.1941 16.0299 14.7068 15.994 14.2187 15.99H14.1725C13.6865 15.994 13.2013 16.0299 12.72 16.0975C12.6487 16.1063 12.5787 16.1125 12.5075 16.1238C12.0379 16.198 11.5736 16.3024 11.1175 16.4363C11.0762 16.4475 11.035 16.4513 10.9925 16.4625C10.9362 16.33 10.8812 16.1963 10.8312 16.0613C10.7812 15.9263 10.7237 15.785 10.6775 15.6463C10.61 15.4375 10.5525 15.2263 10.4987 15.0213C10.465 14.8875 10.425 14.755 10.3962 14.62C10.345 14.3863 10.3112 14.15 10.2775 13.9138C10.2612 13.8 10.2375 13.6863 10.225 13.5725C10.2037 13.3675 10.2 13.1613 10.1912 12.955H18.1987ZM15.0737 5.13376C15.1675 5.22501 15.2525 5.32751 15.3425 5.42251C15.5212 5.61126 15.6987 5.79751 15.8637 6.00126C15.9612 6.12626 16.05 6.25126 16.1425 6.37626C16.285 6.56751 16.4262 6.76001 16.555 6.96126C16.6425 7.09751 16.7237 7.24001 16.805 7.38126C16.87 7.49376 16.93 7.61001 16.9912 7.72501C16.7412 7.79751 16.4837 7.86501 16.2287 7.91751C16.0712 7.95001 15.9162 7.99376 15.7587 8.01876C14.7213 8.18126 13.6649 8.18126 12.6275 8.01876C12.4712 7.99376 12.3162 7.95001 12.1612 7.91751C11.9037 7.86501 11.6487 7.79251 11.3937 7.72501C11.455 7.60876 11.5187 7.49251 11.5812 7.37876C11.6612 7.23876 11.7412 7.09876 11.8312 6.96251C11.9625 6.76001 12.1037 6.56501 12.2475 6.37251C12.3387 6.24751 12.4262 6.12251 12.5225 6.00501C12.6887 5.80251 12.8687 5.61126 13.05 5.42126C13.1387 5.32751 13.2212 5.22751 13.3137 5.13876C13.5938 4.86422 13.8893 4.60588 14.1987 4.36501C14.5047 4.60454 14.7968 4.8612 15.0737 5.13376ZM13.4787 3.80501C13.34 3.91626 13.215 4.04251 13.0825 4.16001C12.95 4.27751 12.8512 4.36001 12.7412 4.46626C12.4912 4.70626 12.26 4.95876 12.0337 5.21626C11.9725 5.28751 11.9087 5.35376 11.8437 5.42751C11.5665 5.76982 11.3094 6.12792 11.0737 6.50001C11.0075 6.60376 10.9487 6.71376 10.8887 6.82001C10.7637 7.02376 10.6387 7.22501 10.5325 7.43626C10.1041 7.28189 9.68645 7.09898 9.28249 6.88876C9.24249 6.86626 9.20624 6.83751 9.16499 6.81501C8.83651 6.62138 8.51895 6.40981 8.21374 6.18126C9.64345 4.80757 11.5028 3.9684 13.4787 3.80501ZM7.57374 6.84876C7.61874 6.88251 7.67124 6.90751 7.71749 6.94126C8.05269 7.18342 8.40115 7.40668 8.76124 7.61001C8.78124 7.62126 8.80124 7.63501 8.82249 7.64626C9.20335 7.85269 9.59612 8.03635 9.99874 8.19626C10.0475 8.21626 10.0925 8.24376 10.1425 8.26376C10.0875 8.38876 10.0487 8.52626 9.99999 8.65751C9.94124 8.81251 9.88249 8.96626 9.83124 9.12251C9.75999 9.34251 9.70624 9.56376 9.64374 9.78626C9.60499 9.93626 9.56124 10.085 9.52874 10.2363C9.47624 10.4863 9.43874 10.7363 9.40374 10.9863C9.38499 11.1113 9.35999 11.2363 9.34624 11.3613C9.32124 11.595 9.31499 11.83 9.30499 12.065H5.50249C5.5949 10.1446 6.32358 8.30947 7.57374 6.84876ZM7.57374 18.175C6.32206 16.7135 5.59247 14.877 5.49999 12.955H9.30499C9.31499 13.19 9.32124 13.425 9.34624 13.6588C9.35999 13.7838 9.38499 13.9088 9.40374 14.0338C9.43874 14.2838 9.47624 14.5338 9.52874 14.7838C9.56124 14.9338 9.60499 15.0825 9.64374 15.2313C9.70124 15.4538 9.75999 15.6763 9.83124 15.8963C9.88249 16.0525 9.94124 16.2063 9.99999 16.3613C10.0487 16.4925 10.0875 16.625 10.1425 16.755C10.0925 16.775 10.0475 16.8025 9.99874 16.8225C9.59623 16.9827 9.20347 17.1663 8.82249 17.3725C8.80124 17.3838 8.78249 17.3975 8.76124 17.4088C8.40175 17.612 8.05372 17.8348 7.71874 18.0763C7.67374 18.115 7.62249 18.14 7.57374 18.175ZM8.21249 18.8438C8.51638 18.6179 8.83271 18.4092 9.15999 18.2188C9.20249 18.195 9.23999 18.1638 9.28499 18.1413C9.6888 17.9307 10.1064 17.7478 10.535 17.5938C10.6437 17.8063 10.7712 18.0088 10.8925 18.2188C10.955 18.3238 11.01 18.4325 11.075 18.535C11.3117 18.9061 11.5701 19.263 11.8487 19.6038C11.9062 19.675 11.9737 19.7388 12.0325 19.8088C12.26 20.0725 12.495 20.3275 12.745 20.5688C12.8562 20.6763 12.9737 20.775 13.0887 20.8763C13.2037 20.9775 13.3462 21.12 13.4837 21.2313C11.505 21.0656 9.64405 20.2224 8.21499 18.8438H8.21249ZM13.315 19.8888C13.2225 19.7988 13.1387 19.6988 13.05 19.6063C12.87 19.4163 12.69 19.2313 12.525 19.0225C12.4275 18.8975 12.3387 18.7725 12.2475 18.6475C12.1037 18.4563 11.9637 18.2625 11.8337 18.0613C11.745 17.9238 11.665 17.7813 11.5837 17.64C11.5187 17.5288 11.4587 17.4125 11.3987 17.2988C11.6487 17.2263 11.905 17.1575 12.1612 17.105C12.3187 17.0738 12.475 17.0288 12.635 17.0038C13.6704 16.8426 14.7246 16.8426 15.76 17.0038C15.9187 17.0288 16.0762 17.0738 16.2337 17.1063C16.4837 17.1588 16.7425 17.2313 16.995 17.2988C16.9337 17.4125 16.87 17.5275 16.81 17.6388C16.7287 17.7813 16.6475 17.9238 16.56 18.0613C16.435 18.2625 16.29 18.4563 16.1462 18.6475C16.055 18.7725 15.9662 18.8975 15.8687 19.0225C15.7037 19.225 15.525 19.415 15.345 19.6038C15.255 19.6988 15.1712 19.7988 15.0787 19.8888C14.8021 20.1617 14.51 20.4183 14.2037 20.6575C13.8958 20.4185 13.602 20.1618 13.3237 19.8888H13.315ZM14.915 21.22C15.0525 21.1088 15.1775 20.9838 15.31 20.8663C15.4425 20.7488 15.5425 20.6638 15.6537 20.5563C15.9037 20.3175 16.1362 20.0638 16.3612 19.8063C16.4237 19.7338 16.4862 19.6688 16.5512 19.595C16.8289 19.255 17.0865 18.899 17.3225 18.5288C17.3887 18.425 17.4475 18.315 17.5075 18.2088C17.6325 18.005 17.7575 17.805 17.8637 17.5925C18.2919 17.7471 18.7094 17.9296 19.1137 18.1388C19.1562 18.1625 19.1937 18.1925 19.2387 18.2163C19.5664 18.4067 19.8831 18.6154 20.1875 18.8413C18.7568 20.2169 16.8955 21.0571 14.9175 21.22H14.915ZM20.675 18.0825C20.338 17.8387 19.9874 17.6141 19.625 17.41C19.6075 17.4 19.59 17.3875 19.5712 17.3775C19.189 17.1709 18.795 16.9868 18.3912 16.8263C18.3437 16.8063 18.2987 16.7788 18.25 16.76C18.3037 16.635 18.3437 16.4975 18.3925 16.3675C18.4512 16.2125 18.51 16.0575 18.5612 15.9013C18.6325 15.6813 18.6862 15.4588 18.7487 15.2375C18.7875 15.0875 18.8312 14.9388 18.8637 14.7888C18.9162 14.5388 18.9537 14.2888 18.9887 14.0388C19.0075 13.9138 19.0325 13.7888 19.0462 13.6638C19.0712 13.4313 19.0775 13.1963 19.0875 12.9613H22.8925C22.8 14.8805 22.0723 16.7145 20.8237 18.175C20.775 18.14 20.7237 18.115 20.6775 18.0825H20.675Z" fill="#919191" fill-opacity="0.8"/>
<path d="M25.455 0.0576183H2.94875C2.16757 0.0569548 1.41811 0.366555 0.865146 0.918345C0.312184 1.47013 0.000994005 2.21894 0 3.00012V33.0001C0.000994005 33.7813 0.312184 34.5301 0.865146 35.0819C1.41811 35.6337 2.16757 35.9433 2.94875 35.9426H25.4613C26.2403 35.94 26.9865 35.6289 27.5368 35.0775C28.087 34.5261 28.3965 33.7791 28.3975 33.0001V3.00012C28.3965 2.22002 28.0862 1.47216 27.5346 0.920552C26.983 0.368942 26.2351 0.0586105 25.455 0.0576183ZM27.5112 33.0001C27.5106 33.5454 27.2938 34.0681 26.9083 34.4538C26.5229 34.8395 26.0003 35.0566 25.455 35.0576H2.94875C2.67823 35.0579 2.41029 35.005 2.16023 34.9018C1.91018 34.7985 1.6829 34.6471 1.49138 34.456C1.29986 34.265 1.14784 34.0381 1.04401 33.7883C0.940187 33.5384 0.886578 33.2706 0.88625 33.0001V3.00012C0.886578 2.7296 0.940187 2.46179 1.04401 2.21198C1.14784 1.96218 1.29986 1.73527 1.49138 1.54421C1.6829 1.35315 1.91018 1.20169 2.16023 1.09847C2.41029 0.995248 2.67823 0.94229 2.94875 0.942618H25.4613C26.0054 0.94526 26.5265 1.16312 26.9105 1.54862C27.2946 1.93411 27.5106 2.45593 27.5112 3.00012V33.0001Z" fill="#919191" fill-opacity="0.8"/>
<path d="M8.6375 27.4114C8.65461 27.0238 8.54104 26.6417 8.315 26.3264C8.11734 26.0595 7.83479 25.8678 7.51375 25.7827C7.07234 25.7094 6.62461 25.6813 6.1775 25.6989H4.375V31.2639H5.5V29.1652H6.23375C6.62372 29.1744 7.0137 29.1476 7.39875 29.0852C7.60854 29.0369 7.80659 28.9473 7.98125 28.8214C8.18033 28.6789 8.34235 28.4907 8.45375 28.2727C8.58458 28.005 8.64768 27.7092 8.6375 27.4114ZM7.3525 27.8589C7.26624 27.984 7.14362 28.0796 7.00125 28.1327C6.71164 28.2071 6.41232 28.2366 6.11375 28.2202H5.4975V26.6402H6.04125C6.31142 26.6329 6.58176 26.6459 6.85 26.6789C7.02449 26.7085 7.18367 26.7967 7.30125 26.9289C7.42236 27.0667 7.48629 27.2456 7.48 27.4289C7.48236 27.5819 7.43787 27.732 7.3525 27.8589Z" fill="#919191" fill-opacity="0.8"/>
<path d="M10.585 25.6987L8.41748 31.2637H9.60873L10.0737 30H12.2975L12.7837 31.2637H14.0062L11.7775 25.6987H10.585ZM10.4137 29.0625L11.1637 26.9975L11.9312 29.0625H10.4137Z" fill="#919191" fill-opacity="0.8"/>
<path d="M17.9999 28.1913C17.6126 28.0112 17.2057 27.8766 16.7874 27.7901C16.4229 27.7307 16.0726 27.6035 15.7549 27.4151C15.7033 27.3752 15.6615 27.3241 15.6327 27.2656C15.6039 27.2071 15.5888 27.1428 15.5887 27.0776C15.5869 27.0096 15.6023 26.9423 15.6333 26.8818C15.6643 26.8213 15.71 26.7696 15.7662 26.7313C15.9941 26.5853 16.2622 26.5149 16.5324 26.5301C16.7841 26.5123 17.0346 26.5782 17.2449 26.7176C17.421 26.878 17.5315 27.098 17.5549 27.3351L18.6799 27.2863C18.6809 27.054 18.6317 26.8241 18.5357 26.6125C18.4397 26.4009 18.2992 26.2124 18.1237 26.0601C17.6708 25.7219 17.1111 25.5586 16.5474 25.6001C16.1731 25.5904 15.8007 25.6563 15.4524 25.7938C15.1691 25.9072 14.9268 26.1037 14.7574 26.3576C14.6001 26.5929 14.5162 26.8696 14.5162 27.1526C14.513 27.3664 14.5573 27.5782 14.6459 27.7727C14.7346 27.9673 14.8653 28.1397 15.0287 28.2776C15.4034 28.5557 15.8371 28.7439 16.2962 28.8276C16.7649 28.9451 17.0637 29.0251 17.1962 29.0776C17.3488 29.1224 17.4877 29.2049 17.5999 29.3176C17.6779 29.412 17.7192 29.5314 17.7162 29.6538C17.7144 29.7585 17.6886 29.8613 17.641 29.9545C17.5933 30.0476 17.525 30.1286 17.4412 30.1913C17.2035 30.3613 16.9138 30.4427 16.6224 30.4213C16.3287 30.437 16.0394 30.345 15.8087 30.1626C15.5849 29.9479 15.443 29.6619 15.4074 29.3538L14.3149 29.4613C14.3498 30.004 14.5914 30.5127 14.9899 30.8826C15.4547 31.2365 16.0321 31.4097 16.6149 31.3701C17.028 31.3825 17.4396 31.3137 17.8262 31.1676C18.1353 31.0426 18.3975 30.8241 18.5762 30.5426C18.7501 30.276 18.8426 29.9646 18.8424 29.6463C18.8525 29.3359 18.7754 29.0289 18.6199 28.7601C18.4692 28.5174 18.2547 28.3207 17.9999 28.1913Z" fill="#919191" fill-opacity="0.8"/>
<path d="M23.1863 28.1913C22.799 28.0112 22.3921 27.8765 21.9738 27.7901C21.6088 27.7306 21.2582 27.6035 20.94 27.4151C20.8886 27.375 20.847 27.3239 20.8182 27.2654C20.7894 27.207 20.7742 27.1427 20.7738 27.0776C20.7719 27.0095 20.7874 26.942 20.8186 26.8815C20.8499 26.8209 20.8959 26.7693 20.9525 26.7313C21.1804 26.5853 21.4486 26.5149 21.7188 26.5301C21.9701 26.5123 22.2202 26.5782 22.43 26.7176C22.607 26.8774 22.7176 27.0977 22.74 27.3351L23.865 27.2863C23.866 27.054 23.8168 26.8241 23.7208 26.6125C23.6248 26.4008 23.4843 26.2124 23.3088 26.0601C22.8554 25.7219 22.2953 25.5586 21.7313 25.6001C21.357 25.5905 20.9846 25.6564 20.6363 25.7938C20.3533 25.9078 20.1112 26.1042 19.9413 26.3576C19.7458 26.6552 19.6656 27.014 19.7157 27.3666C19.7659 27.7191 19.943 28.0413 20.2138 28.2726C20.5885 28.5507 21.0222 28.7389 21.4813 28.8226C21.95 28.9401 22.2488 29.0201 22.3813 29.0726C22.5339 29.1174 22.6728 29.1999 22.785 29.3126C22.863 29.407 22.9043 29.5264 22.9013 29.6488C22.8995 29.7535 22.8737 29.8563 22.8261 29.9495C22.7784 30.0426 22.7101 30.1236 22.6263 30.1863C22.3886 30.3563 22.0989 30.4377 21.8075 30.4163C21.5138 30.4322 21.2244 30.3402 20.9938 30.1576C20.7696 29.9432 20.6276 29.657 20.5925 29.3488L19.4988 29.4563C19.5343 29.9981 19.7758 30.5058 20.1738 30.8751C20.6386 31.229 21.216 31.4022 21.7988 31.3626C22.2115 31.3748 22.6226 31.306 23.0088 31.1601C23.318 31.0353 23.5803 30.8167 23.7588 30.5351C23.9323 30.2684 24.0244 29.957 24.0238 29.6388C24.0342 29.3286 23.9576 29.0215 23.8025 28.7526C23.6514 28.5134 23.4385 28.3195 23.1863 28.1913Z" fill="#919191" fill-opacity="0.8"/>
</svg>
