<svg width="29" height="36" viewBox="0 0 29 36" fill="none" xmlns="http://www.w3.org/2000/svg">
<path d="M21.1987 19.0211C22.489 17.6539 23.3507 15.9388 23.6773 14.0875C24.004 12.2361 23.7813 10.3297 23.0368 8.60342C22.2924 6.87719 21.0587 5.40676 19.4881 4.37366C17.9174 3.34057 16.0787 2.79004 14.1987 2.79004C12.3188 2.79004 10.48 3.34057 8.90942 4.37366C7.3388 5.40676 6.1051 6.87719 5.36063 8.60342C4.61615 10.3297 4.3935 12.2361 4.72015 14.0875C5.0468 15.9388 5.90845 17.6539 7.19874 19.0211C8.09245 19.9847 9.17546 20.7534 10.38 21.279C11.5845 21.8047 12.8845 22.076 14.1987 22.076C15.5129 22.076 16.813 21.8047 18.0175 21.279C19.222 20.7534 20.305 19.9847 21.1987 19.0211ZM20.8237 6.79114C22.0756 8.25252 22.8052 10.0891 22.8975 12.0111H19.09C19.08 11.7761 19.0737 11.5411 19.0487 11.3086C19.035 11.1836 19.0087 11.0524 18.9912 10.9249C18.955 10.6749 18.9187 10.4249 18.8662 10.1749C18.8337 10.0236 18.79 9.87365 18.7512 9.72365C18.6937 9.5024 18.635 9.28115 18.5637 9.0624C18.5125 8.90489 18.4537 8.75115 18.395 8.5949C18.3462 8.4699 18.3062 8.3324 18.2525 8.2024C18.3025 8.1824 18.3475 8.1549 18.3962 8.1349C18.7989 7.97498 19.1916 7.79133 19.5725 7.5849C19.5937 7.57365 19.6137 7.55989 19.6337 7.54864C19.9938 7.34532 20.3423 7.12205 20.6775 6.87989C20.7237 6.84989 20.7762 6.82489 20.8237 6.79114ZM20.185 6.12239C19.8798 6.35094 19.5622 6.56251 19.2337 6.75614C19.1925 6.77864 19.1562 6.80739 19.1162 6.82989C18.7123 7.04012 18.2947 7.22303 17.8662 7.37739C17.7575 7.16614 17.6312 6.96489 17.51 6.76114C17.4475 6.65489 17.385 6.54489 17.325 6.44114C17.0887 6.07116 16.8312 5.71515 16.5537 5.37489C16.4937 5.30114 16.4287 5.23489 16.3637 5.16364C16.1375 4.90114 15.905 4.64864 15.6562 4.41364C15.5462 4.30739 15.43 4.20989 15.315 4.10739C15.2 4.00489 15.0575 3.85739 14.9187 3.75239C16.8935 3.91434 18.7522 4.75125 20.1825 6.12239H20.185ZM10.1987 12.0111C10.2075 11.8049 10.2112 11.5974 10.2325 11.3936C10.245 11.2799 10.2687 11.1674 10.285 11.0549C10.3187 10.8174 10.3525 10.5811 10.4037 10.3461C10.4325 10.2124 10.4725 10.0799 10.5062 9.94614C10.5612 9.73489 10.6175 9.52364 10.685 9.32114C10.7312 9.18239 10.7862 9.04364 10.8387 8.90615C10.8912 8.76864 10.9437 8.63739 11 8.50489C11.0387 8.51614 11.0787 8.51989 11.1175 8.53114C11.5824 8.66669 12.0554 8.77274 12.5337 8.84865C12.5837 8.85615 12.6337 8.85989 12.6837 8.86739C13.6896 9.02072 14.7129 9.02072 15.7187 8.86739C15.77 8.85989 15.82 8.85615 15.87 8.84865C16.3479 8.77288 16.8205 8.66683 17.285 8.53114C17.3237 8.51989 17.3637 8.51614 17.4025 8.50489C17.4587 8.63739 17.5137 8.77114 17.5637 8.90615C17.6137 9.04114 17.6712 9.18239 17.7175 9.32114C17.785 9.52989 17.8425 9.74114 17.8962 9.94614C17.93 10.0799 17.97 10.2124 17.9987 10.3461C18.05 10.5811 18.0837 10.8174 18.1175 11.0549C18.1337 11.1674 18.1575 11.2799 18.17 11.3936C18.1912 11.5974 18.195 11.8049 18.2037 12.0111H10.1987ZM18.1987 12.8974C18.19 13.1036 18.1862 13.3099 18.165 13.5149C18.1525 13.6286 18.1287 13.7424 18.1125 13.8561C18.0787 14.0924 18.045 14.3286 17.9937 14.5624C17.965 14.6974 17.925 14.8299 17.8912 14.9636C17.8362 15.1736 17.78 15.3849 17.7125 15.5886C17.6662 15.7274 17.6112 15.8661 17.5587 16.0036C17.5062 16.1411 17.4537 16.2724 17.3975 16.4049C17.3575 16.3936 17.3175 16.3899 17.2787 16.3786C16.8211 16.244 16.3551 16.1396 15.8837 16.0661C15.815 16.0549 15.7462 16.0499 15.6775 16.0399C15.1941 15.9723 14.7068 15.9364 14.2187 15.9324H14.1725C13.6865 15.9364 13.2013 15.9723 12.72 16.0399C12.6487 16.0486 12.5787 16.0549 12.5075 16.0661C12.0379 16.1404 11.5736 16.2448 11.1175 16.3786C11.0762 16.3899 11.035 16.3936 10.9925 16.4049C10.9362 16.2724 10.8812 16.1386 10.8312 16.0036C10.7812 15.8686 10.7237 15.7274 10.6775 15.5886C10.61 15.3799 10.5525 15.1686 10.4987 14.9636C10.465 14.8299 10.425 14.6974 10.3962 14.5624C10.345 14.3286 10.3112 14.0924 10.2775 13.8561C10.2612 13.7424 10.2375 13.6286 10.225 13.5149C10.2037 13.3099 10.2 13.1036 10.1912 12.8974H18.1987ZM15.0737 5.07614C15.1675 5.16739 15.2525 5.26989 15.3425 5.36489C15.5212 5.55364 15.6987 5.73989 15.8637 5.94364C15.9612 6.06864 16.05 6.19364 16.1425 6.31864C16.285 6.50989 16.4262 6.70239 16.555 6.90364C16.6425 7.03989 16.7237 7.18239 16.805 7.32364C16.87 7.43614 16.93 7.55239 16.9912 7.6674C16.7412 7.73989 16.4837 7.80739 16.2287 7.8599C16.0712 7.8924 15.9162 7.93615 15.7587 7.96115C14.7213 8.12364 13.6649 8.12364 12.6275 7.96115C12.4712 7.93615 12.3162 7.8924 12.1612 7.8599C11.9037 7.80739 11.6487 7.73489 11.3937 7.6674C11.455 7.55115 11.5187 7.43489 11.5812 7.32114C11.6612 7.18114 11.7412 7.04114 11.8312 6.90489C11.9625 6.70239 12.1037 6.50739 12.2475 6.31489C12.3387 6.18989 12.4262 6.06489 12.5225 5.94739C12.6887 5.74489 12.8687 5.55364 13.05 5.36364C13.1387 5.26989 13.2212 5.16989 13.3137 5.08114C13.5938 4.8066 13.8893 4.54826 14.1987 4.30739C14.5047 4.54692 14.7968 4.80358 15.0737 5.07614ZM13.4787 3.74739C13.34 3.85864 13.215 3.98489 13.0825 4.10239C12.95 4.21989 12.8512 4.30239 12.7412 4.40864C12.4912 4.64864 12.26 4.90114 12.0337 5.15864C11.9725 5.22989 11.9087 5.29614 11.8437 5.36989C11.5665 5.7122 11.3094 6.07031 11.0737 6.44239C11.0075 6.54614 10.9487 6.65614 10.8887 6.76239C10.7637 6.96615 10.6387 7.16739 10.5325 7.37864C10.1041 7.22428 9.68645 7.04137 9.28249 6.83114C9.24249 6.80864 9.20624 6.77989 9.16499 6.75739C8.83651 6.56376 8.51895 6.35219 8.21374 6.12364C9.64345 4.74995 11.5028 3.91078 13.4787 3.74739ZM7.57374 6.79114C7.61874 6.82489 7.67124 6.84989 7.71749 6.88364C8.05269 7.1258 8.40115 7.34907 8.76124 7.55239C8.78124 7.56364 8.80124 7.57739 8.82249 7.58864C9.20335 7.79508 9.59612 7.97873 9.99874 8.13864C10.0475 8.15864 10.0925 8.18615 10.1425 8.20615C10.0875 8.33115 10.0487 8.46865 9.99999 8.5999C9.94124 8.7549 9.88249 8.90864 9.83124 9.06489C9.75999 9.28489 9.70624 9.50615 9.64374 9.72864C9.60499 9.87864 9.56124 10.0274 9.52874 10.1786C9.47624 10.4286 9.43874 10.6786 9.40374 10.9286C9.38499 11.0536 9.35999 11.1786 9.34624 11.3036C9.32124 11.5374 9.31499 11.7724 9.30499 12.0074H5.50249C5.5949 10.087 6.32358 8.25186 7.57374 6.79114ZM7.57374 18.1174C6.32206 16.6559 5.59247 14.8194 5.49999 12.8974H9.30499C9.31499 13.1324 9.32124 13.3674 9.34624 13.6011C9.35999 13.7261 9.38499 13.8511 9.40374 13.9761C9.43874 14.2261 9.47624 14.4761 9.52874 14.7261C9.56124 14.8761 9.60499 15.0249 9.64374 15.1736C9.70124 15.3961 9.75999 15.6186 9.83124 15.8386C9.88249 15.9949 9.94124 16.1486 9.99999 16.3036C10.0487 16.4349 10.0875 16.5674 10.1425 16.6974C10.0925 16.7174 10.0475 16.7449 9.99874 16.7649C9.59623 16.9251 9.20347 17.1087 8.82249 17.3149C8.80124 17.3261 8.78249 17.3399 8.76124 17.3511C8.40175 17.5543 8.05372 17.7772 7.71874 18.0186C7.67374 18.0574 7.62249 18.0824 7.57374 18.1174ZM8.21249 18.7861C8.51638 18.5603 8.83271 18.3516 9.15999 18.1611C9.20249 18.1374 9.23999 18.1061 9.28499 18.0836C9.6888 17.8731 10.1064 17.6902 10.535 17.5361C10.6437 17.7486 10.7712 17.9511 10.8925 18.1611C10.955 18.2661 11.01 18.3749 11.075 18.4774C11.3117 18.8485 11.5701 19.2054 11.8487 19.5461C11.9062 19.6174 11.9737 19.6811 12.0325 19.7511C12.26 20.0149 12.495 20.2699 12.745 20.5111C12.8562 20.6186 12.9737 20.7174 13.0887 20.8186C13.2037 20.9199 13.3462 21.0624 13.4837 21.1736C11.505 21.008 9.64405 20.1647 8.21499 18.7861H8.21249ZM13.315 19.8311C13.2225 19.7411 13.1387 19.6411 13.05 19.5486C12.87 19.3586 12.69 19.1736 12.525 18.9649C12.4275 18.8399 12.3387 18.7149 12.2475 18.5899C12.1037 18.3986 11.9637 18.2049 11.8337 18.0036C11.745 17.8661 11.665 17.7236 11.5837 17.5824C11.5187 17.4711 11.4587 17.3549 11.3987 17.2411C11.6487 17.1686 11.905 17.0999 12.1612 17.0474C12.3187 17.0161 12.475 16.9711 12.635 16.9461C13.6704 16.785 14.7246 16.785 15.76 16.9461C15.9187 16.9711 16.0762 17.0161 16.2337 17.0486C16.4837 17.1011 16.7425 17.1736 16.995 17.2411C16.9337 17.3549 16.87 17.4699 16.81 17.5811C16.7287 17.7236 16.6475 17.8661 16.56 18.0036C16.435 18.2049 16.29 18.3986 16.1462 18.5899C16.055 18.7149 15.9662 18.8399 15.8687 18.9649C15.7037 19.1674 15.525 19.3574 15.345 19.5461C15.255 19.6411 15.1712 19.7411 15.0787 19.8311C14.8021 20.104 14.51 20.3607 14.2037 20.5999C13.8958 20.3609 13.602 20.1042 13.3237 19.8311H13.315ZM14.915 21.1624C15.0525 21.0511 15.1775 20.9261 15.31 20.8086C15.4425 20.6911 15.5425 20.6061 15.6537 20.4986C15.9037 20.2599 16.1362 20.0061 16.3612 19.7486C16.4237 19.6761 16.4862 19.6111 16.5512 19.5374C16.8289 19.1974 17.0865 18.8413 17.3225 18.4711C17.3887 18.3674 17.4475 18.2574 17.5075 18.1511C17.6325 17.9474 17.7575 17.7474 17.8637 17.5349C18.2919 17.6895 18.7094 17.872 19.1137 18.0811C19.1562 18.1049 19.1937 18.1349 19.2387 18.1586C19.5664 18.3491 19.8831 18.5578 20.1875 18.7836C18.7568 20.1593 16.8955 20.9994 14.9175 21.1624H14.915ZM20.675 18.0249C20.338 17.7811 19.9874 17.5565 19.625 17.3524C19.6075 17.3424 19.59 17.3299 19.5712 17.3199C19.189 17.1133 18.795 16.9292 18.3912 16.7686C18.3437 16.7486 18.2987 16.7211 18.25 16.7024C18.3037 16.5774 18.3437 16.4399 18.3925 16.3099C18.4512 16.1549 18.51 15.9999 18.5612 15.8436C18.6325 15.6236 18.6862 15.4011 18.7487 15.1799C18.7875 15.0299 18.8312 14.8811 18.8637 14.7311C18.9162 14.4811 18.9537 14.2311 18.9887 13.9811C19.0075 13.8561 19.0325 13.7311 19.0462 13.6061C19.0712 13.3736 19.0775 13.1386 19.0875 12.9036H22.8925C22.8 14.8229 22.0723 16.6569 20.8237 18.1174C20.775 18.0824 20.7237 18.0574 20.6775 18.0249H20.675Z" fill="black"/>
<path d="M25.455 1.06423e-06H2.94875C2.16757 -0.000662426 1.41811 0.308938 0.865146 0.860728C0.312184 1.41252 0.000994005 2.16132 0 2.9425V32.9425C0.000994005 33.7237 0.312184 34.4725 0.865146 35.0243C1.41811 35.5761 2.16757 35.8857 2.94875 35.885H25.4613C26.2403 35.8824 26.9865 35.5713 27.5368 35.0199C28.087 34.4684 28.3965 33.7215 28.3975 32.9425V2.9425C28.3965 2.16241 28.0862 1.41455 27.5346 0.862935C26.983 0.311324 26.2351 0.000993342 25.455 1.06423e-06ZM27.5112 32.9425C27.5106 33.4878 27.2938 34.0105 26.9083 34.3962C26.5229 34.7819 26.0003 34.999 25.455 35H2.94875C2.67823 35.0003 2.41029 34.9474 2.16023 34.8441C1.91018 34.7409 1.6829 34.5895 1.49138 34.3984C1.29986 34.2074 1.14784 33.9804 1.04401 33.7306C0.940187 33.4808 0.886578 33.213 0.88625 32.9425V2.9425C0.886578 2.67198 0.940187 2.40417 1.04401 2.15436C1.14784 1.90456 1.29986 1.67765 1.49138 1.48659C1.6829 1.29554 1.91018 1.14407 2.16023 1.04085C2.41029 0.937631 2.67823 0.884673 2.94875 0.885001H25.4613C26.0054 0.887642 26.5265 1.1055 26.9105 1.491C27.2946 1.8765 27.5106 2.39832 27.5112 2.9425V32.9425Z" fill="black"/>
<path d="M8.6375 27.3538C8.65461 26.9662 8.54104 26.5841 8.315 26.2688C8.11734 26.0019 7.83479 25.8102 7.51375 25.7251C7.07234 25.6518 6.62461 25.6237 6.1775 25.6413H4.375V31.2063H5.5V29.1076H6.23375C6.62372 29.1168 7.0137 29.09 7.39875 29.0276C7.60854 28.9793 7.80659 28.8896 7.98125 28.7638C8.18033 28.6213 8.34235 28.4331 8.45375 28.2151C8.58458 27.9473 8.64768 27.6516 8.6375 27.3538ZM7.3525 27.8013C7.26624 27.9264 7.14362 28.022 7.00125 28.0751C6.71164 28.1495 6.41232 28.179 6.11375 28.1626H5.4975V26.5826H6.04125C6.31142 26.5753 6.58176 26.5882 6.85 26.6213C7.02449 26.6509 7.18367 26.7391 7.30125 26.8713C7.42236 27.0091 7.48629 27.188 7.48 27.3713C7.48236 27.5243 7.43787 27.6743 7.3525 27.8013Z" fill="black"/>
<path d="M10.585 25.6411L8.41748 31.2061H9.60873L10.0737 29.9424H12.2975L12.7837 31.2061H14.0062L11.7775 25.6411H10.585ZM10.4137 29.0049L11.1637 26.9399L11.9312 29.0049H10.4137Z" fill="black"/>
<path d="M18 28.1337C17.6127 27.9536 17.2058 27.8189 16.7875 27.7325C16.4229 27.6731 16.0727 27.5459 15.755 27.3575C15.7034 27.3176 15.6616 27.2665 15.6328 27.208C15.6039 27.1495 15.5889 27.0852 15.5888 27.02C15.587 26.952 15.6023 26.8847 15.6334 26.8242C15.6644 26.7637 15.7101 26.712 15.7663 26.6737C15.9941 26.5277 16.2623 26.4573 16.5325 26.4725C16.7842 26.4547 17.0347 26.5206 17.245 26.66C17.4211 26.8204 17.5315 27.0404 17.555 27.2775L18.68 27.2287C18.681 26.9963 18.6318 26.7665 18.5358 26.5549C18.4398 26.3432 18.2992 26.1548 18.1238 26.0025C17.6709 25.6643 17.1112 25.501 16.5475 25.5425C16.1732 25.5328 15.8008 25.5987 15.4525 25.7362C15.1692 25.8495 14.9268 26.0461 14.7575 26.3C14.6002 26.5353 14.5162 26.8119 14.5163 27.095C14.5131 27.3087 14.5574 27.5206 14.646 27.7151C14.7346 27.9097 14.8654 28.0821 15.0288 28.22C15.4035 28.4981 15.8371 28.6863 16.2963 28.77C16.765 28.8875 17.0638 28.9675 17.1963 29.02C17.3489 29.0648 17.4877 29.1473 17.6 29.26C17.678 29.3544 17.7192 29.4738 17.7163 29.5962C17.7144 29.7009 17.6887 29.8037 17.641 29.8968C17.5934 29.99 17.525 30.071 17.4413 30.1337C17.2036 30.3037 16.9139 30.3851 16.6225 30.3637C16.3288 30.3794 16.0395 30.2874 15.8088 30.105C15.585 29.8903 15.4431 29.6043 15.4075 29.2962L14.315 29.4037C14.3499 29.9464 14.5914 30.455 14.99 30.825C15.4548 31.1789 16.0322 31.3521 16.615 31.3125C17.0281 31.3248 17.4396 31.256 17.8263 31.11C18.1353 30.985 18.3976 30.7665 18.5763 30.485C18.7502 30.2184 18.8427 29.907 18.8425 29.5887C18.8526 29.2783 18.7755 28.9713 18.62 28.7025C18.4692 28.4598 18.2548 28.2631 18 28.1337Z" fill="black"/>
<path d="M23.1863 28.1337C22.799 27.9536 22.3921 27.8189 21.9738 27.7325C21.6088 27.673 21.2582 27.5458 20.94 27.3575C20.8886 27.3174 20.847 27.2663 20.8182 27.2078C20.7894 27.1493 20.7742 27.0851 20.7738 27.02C20.7719 26.9519 20.7874 26.8844 20.8186 26.8239C20.8499 26.7633 20.8959 26.7117 20.9525 26.6737C21.1804 26.5277 21.4486 26.4573 21.7188 26.4725C21.9701 26.4547 22.2202 26.5206 22.43 26.66C22.607 26.8197 22.7176 27.0401 22.74 27.2775L23.865 27.2287C23.866 26.9963 23.8168 26.7665 23.7208 26.5549C23.6248 26.3432 23.4843 26.1548 23.3088 26.0025C22.8554 25.6643 22.2953 25.501 21.7313 25.5425C21.357 25.5329 20.9846 25.5988 20.6363 25.7362C20.3533 25.8502 20.1112 26.0466 19.9413 26.3C19.7458 26.5976 19.6656 26.9564 19.7157 27.309C19.7659 27.6615 19.943 27.9837 20.2138 28.215C20.5885 28.4931 21.0222 28.6813 21.4813 28.765C21.95 28.8825 22.2488 28.9625 22.3813 29.015C22.5339 29.0598 22.6728 29.1423 22.785 29.255C22.863 29.3494 22.9043 29.4688 22.9013 29.5912C22.8995 29.6958 22.8737 29.7987 22.8261 29.8918C22.7784 29.985 22.7101 30.066 22.6263 30.1287C22.3886 30.2987 22.0989 30.3801 21.8075 30.3587C21.5138 30.3746 21.2244 30.2826 20.9938 30.1C20.7696 29.8856 20.6276 29.5994 20.5925 29.2912L19.4988 29.3987C19.5343 29.9405 19.7758 30.4481 20.1738 30.8175C20.6386 31.1713 21.216 31.3446 21.7988 31.305C22.2115 31.3172 22.6226 31.2484 23.0088 31.1025C23.318 30.9776 23.5803 30.7591 23.7588 30.4775C23.9323 30.2108 24.0244 29.8994 24.0238 29.5812C24.0342 29.2709 23.9576 28.9639 23.8025 28.695C23.6514 28.4558 23.4385 28.2619 23.1863 28.1337Z" fill="black"/>
</svg>
